<svg width="160" height="160" viewBox="0 0 160 160" xmlns="http://www.w3.org/2000/svg" role="img" aria-label="Sign & Speak logo">
  <defs>
    <linearGradient id="g" x1="0" x2="1" y1="0" y2="1">
      <stop offset="0%" stop-color="#FF6B6B"/>
      <stop offset="100%" stop-color="#2F80ED"/>
    </linearGradient>
  </defs>
  <circle cx="80" cy="80" r="76" fill="url(#g)" opacity="0.15"/>
  <!-- stylized hands forming a speech bubble -->
  <path d="M35 85c0-20 16-36 36-36h12c20 0 36 16 36 36 0 10-4 19-11 26l4 13c1 3-2 5-4 3l-12-9a36 36 0 0 1-13 3H71c-20 0-36-16-36-36z" fill="#fff"/>
  <path d="M55 72c2-3 7-2 8 2l2 6c1 3-2 6-5 5l-6-2c-4-1-5-6-2-8zM103 72c-2-3-7-2-8 2l-2 6c-1 3 2 6 5 5l6-2c4-1 5-6 2-8z" fill="#FF6B6B"/>
  <circle cx="80" cy="92" r="8" fill="#2F80ED"/>
</svg>